<?xml version="1.0" standalone="no"?><!DOCTYPE svg PUBLIC "-//W3C//DTD SVG 1.1//EN" "http://www.w3.org/Graphics/SVG/1.1/DTD/svg11.dtd"><svg class="icon" width="30px" height="30.00px" viewBox="0 0 1024 1024" version="1.1" xmlns="http://www.w3.org/2000/svg"><path fill="#31bccb" d="M904.8 946.4H119.2c-22.4 0-40.8-18.4-40.8-40.8s18.4-40.8 40.8-40.8h785.6c22.4 0 40.8 18.4 40.8 40.8 0.8 22.4-18.4 40.8-40.8 40.8z m0.8-103.2c-22.4 0-40.8-18.4-40.8-40.8V252c0-7.2-2.4-12.8-4-15.2h-71.2c-0.8 2.4-4 7.2-4 15.2v551.2c0 22.4-18.4 40.8-40.8 40.8s-40.8-18.4-40.8-40.8V252c0-54.4 36-96.8 82.4-96.8h78.4c45.6 0 82.4 42.4 82.4 96.8v551.2c-0.8 21.6-20 40-41.6 40z m-312 0c-22.4 0-40.8-18.4-40.8-40.8V438.4c0-8.8-2.4-15.2-4-18.4h-69.6c-2.4 3.2-4 8.8-4 18.4v364c0 22.4-18.4 40.8-40.8 40.8s-40.8-18.4-40.8-40.8V438.4c0-55.2 36-100 82.4-100h78.4c45.6 0 82.4 43.2 82.4 100v364c-1.6 22.4-20 40.8-43.2 40.8z m-474.4 0c-22.4 0-40.8-18.4-40.8-40.8V606.4c0-55.2 36-100 82.4-100h78.4c45.6 0 82.4 43.2 82.4 100v196c0 22.4-18.4 40.8-40.8 40.8s-40.8-18.4-40.8-40.8V606.4c0-8.8-2.4-15.2-4-18.4h-69.6c-2.4 3.2-4 8.8-4 18.4v196c-2.4 22.4-20.8 40.8-43.2 40.8zM214.4 438.4H119.2c-22.4 0-40.8-18.4-40.8-40.8s18.4-40.8 40.8-40.8h82.4L504.8 160h-42.4c-22.4 0-40.8-18.4-40.8-40.8s18.4-40.8 40.8-40.8h180c22.4 0 40 18.4 40 40.8 0 14.4-6.4 27.2-18.4 34.4L235.2 430.4c-5.6 5.6-12.8 8-20.8 8z" /></svg>