<?xml version="1.0" standalone="no"?><!DOCTYPE svg PUBLIC "-//W3C//DTD SVG 1.1//EN" "http://www.w3.org/Graphics/SVG/1.1/DTD/svg11.dtd"><svg class="icon" width="30px" height="30.00px" viewBox="0 0 1024 1024" version="1.1" xmlns="http://www.w3.org/2000/svg"><path fill="#31bccb" d="M209.92 819.2c-10.24 0-15.36-5.12-25.6-5.12 30.72-81.92 112.64-168.96 174.08-179.2 40.96-5.12 66.56 5.12 128 40.96l5.12 5.12c76.8 46.08 117.76 56.32 179.2 46.08 128-20.48 174.08-56.32 250.88-179.2l-76.8-51.2c-61.44 102.4-87.04 122.88-189.44 138.24-35.84 5.12-61.44-5.12-122.88-35.84l-5.12-5.12c-76.8-46.08-122.88-61.44-189.44-51.2-87.04 15.36-148.48 66.56-194.56 153.6v-153.6V614.4c25.6-87.04 117.76-209.92 204.8-215.04 40.96-5.12 66.56 5.12 128 40.96l5.12 5.12c76.8 46.08 117.76 56.32 179.2 46.08 138.24-25.6 184.32-61.44 261.12-184.32l-76.8-51.2c-61.44 102.4-87.04 122.88-189.44 138.24-35.84 5.12-61.44-5.12-122.88-35.84l-5.12-5.12C455.68 307.2 409.6 291.84 348.16 302.08 261.12 317.44 194.56 358.4 153.6 435.2V102.4H51.2v737.28c0 46.08 35.84 81.92 81.92 81.92H972.8v-102.4H209.92z m-51.2-25.6l-5.12-5.12 5.12 5.12z" /></svg>